<svg aria-hidden="true" style="position: absolute; width: 0; height: 0; overflow: hidden;" version="1.1" xmlns="http://www.w3.org/2000/svg" xmlns:xlink="http://www.w3.org/1999/xlink">
<defs>
<symbol id="icon-arrow" viewBox="0 0 73 32">
<path d="M1.5 20.65l8.198 10.583c0.713 0.903 2.020 1.032 2.97 0.258 0.832-0.774 0.95-2.194 0.238-3.227l-7.723-9.938h65.821c1.188 0 2.138-1.032 2.138-2.323s-0.95-2.323-2.138-2.323h-65.821l7.723-9.938c0.713-0.903 0.594-2.323-0.238-3.227-0.356-0.387-0.832-0.516-1.307-0.516-0.594 0-1.188 0.258-1.545 0.774l-8.198 10.583c-2.139 2.839-2.139 6.711-0.119 9.293z"></path>
</symbol>
<symbol id="icon-search" viewBox="0 0 32 32">
<path d="M25.96 27.374c0.391 0.391 1.024 0.391 1.414 0s0.391-1.024 0-1.414l-1.414 1.414zM23 14c0 4.971-4.029 9-9 9v2c6.075 0 11-4.925 11-11h-2zM14 23c-4.971 0-9-4.029-9-9h-2c0 6.075 4.925 11 11 11v-2zM5 14c0-4.971 4.029-9 9-9v-2c-6.075 0-11 4.925-11 11h2zM14 5c4.971 0 9 4.029 9 9h2c0-6.075-4.925-11-11-11v2zM27.374 25.96l-5.583-5.583-1.414 1.414 5.583 5.583 1.414-1.414z"></path>
</symbol>
</defs>
</svg>
